<svg id="Isolation_Mode" data-name="Isolation Mode" xmlns="http://www.w3.org/2000/svg" viewBox="0 0 2048 2048"><defs><style>.cls-1{fill:#f7f7f7;}.cls-2{fill:#c23248;}</style></defs><rect class="cls-1" width="2048" height="2048"/><path d="M1743,1013.61l-133.4-34.41a592.36,592.36,0,0,0-94.45-227.89l70-118.71a8.32,8.32,0,0,0-1.58-10l-94-94a8.32,8.32,0,0,0-10-1.58l-118.71,70a592.3,592.3,0,0,0-227.89-94.45l-34.41-133.4a8.31,8.31,0,0,0-8.2-6H957.56a8.31,8.31,0,0,0-8.2,6L915,502.62a592.3,592.3,0,0,0-227.89,94.45L568.35,527a8.32,8.32,0,0,0-10,1.58l-94,94a8.3,8.3,0,0,0-1.58,10l70,118.71A592.36,592.36,0,0,0,438.37,979.2L305,1013.61a8.31,8.31,0,0,0-6,8.2v132.88a8.31,8.31,0,0,0,6,8.2l133.4,34.41a592.3,592.3,0,0,0,94.45,227.89l-70,118.71a8.3,8.3,0,0,0,1.58,10l94,94a8.3,8.3,0,0,0,10,1.58l118.71-70s10.66,8,30.27,19.47a591.59,591.59,0,0,0,197.62,75h1.38c92.2,17.89,205.63,17.81,327.77-32a594.06,594.06,0,0,0,116.84-62.41l118.71,70a8.3,8.3,0,0,0,10-1.58l94-94a8.31,8.31,0,0,0,1.58-10l-70-118.71a592.3,592.3,0,0,0,94.45-227.89l133.4-34.41a8.31,8.31,0,0,0,6-8.2V1021.81A8.31,8.31,0,0,0,1743,1013.61ZM1024,1566.7c-264.24,0-478.45-214.21-478.45-478.45S759.76,609.8,1024,609.8,1502.45,824,1502.45,1088.25,1288.24,1566.7,1024,1566.7Z"/><path class="cls-2" d="M613.81,1475.64h75.71a74.62,74.62,0,0,0,38.2-10.31c17.46-10.4,29.26-27.72,30.27-47.66l13.21-262.23q4-75,4-144,0-91.63-8.07-195.2L908,1342.07c7.33,27.36,34.93,46.68,66.69,46.68h99.27c32.12,0,59.93-19.74,66.9-47.5l131.93-525q-4,61.9-4,130.92,0,90.48,6.74,205.94l13.23,264.57c1,21,14.14,39.2,33.23,49.35a75,75,0,0,0,35.23,8.64h77c36.45,0,65.84-25.09,68.35-56.28a54.35,54.35,0,0,0,0-8.93l-59.64-703.54c-2.68-31.66-32.48-56.13-68.34-56.13H1214.28c-32.51,0-60.55,20.22-67.12,48.41l-119.13,511L900.08,698.32c-7-27.78-34.77-47.56-66.92-47.56H673.43c-35.86,0-65.66,24.47-68.34,56.13l-59.62,703.54c-.13,1.45-.17,2.9-.18,4.33C545.12,1448.05,575.59,1475.64,613.81,1475.64Z"/></svg>