<svg id="Isolation_Mode" data-name="Isolation Mode" xmlns="http://www.w3.org/2000/svg" viewBox="0 0 2048 2048"><defs><style>.cls-1{fill:#c23248;}</style></defs><path d="M2000.36,1009.89l-181.14-46.72A804.3,804.3,0,0,0,1691,653.72l95.1-161.2a11.29,11.29,0,0,0-2.14-13.6L1656.33,351.33a11.31,11.31,0,0,0-13.61-2.15l-161.19,95.1A804.18,804.18,0,0,0,1172.07,316l-46.72-181.15a11.28,11.28,0,0,0-11.13-8.1H933.78a11.28,11.28,0,0,0-11.13,8.1L875.93,316A804.18,804.18,0,0,0,566.47,444.28l-161.19-95.1a11.31,11.31,0,0,0-13.61,2.15L264.08,478.92a11.29,11.29,0,0,0-2.14,13.6L357,653.72A804.3,804.3,0,0,0,228.78,963.17L47.64,1009.89A11.3,11.3,0,0,0,39.53,1021v180.45a11.3,11.3,0,0,0,8.11,11.13l181.14,46.72A804.44,804.44,0,0,0,357,1568.77L261.94,1730a11.29,11.29,0,0,0,2.14,13.6l127.59,127.59a11.31,11.31,0,0,0,13.61,2.15l161.19-95.1s14.48,10.79,41.1,26.44a803.39,803.39,0,0,0,268.36,101.81h1.87c125.2,24.3,279.22,24.19,445.07-43.51a806.63,806.63,0,0,0,158.66-84.74l161.19,95.1a11.31,11.31,0,0,0,13.61-2.15l127.59-127.59a11.29,11.29,0,0,0,2.14-13.6L1691,1568.77a804.44,804.44,0,0,0,128.25-309.45l181.14-46.72a11.3,11.3,0,0,0,8.11-11.13V1021A11.3,11.3,0,0,0,2000.36,1009.89Zm-976.36,751c-358.81,0-649.68-290.88-649.68-649.69S665.19,461.56,1024,461.56s649.68,290.88,649.68,649.68S1382.81,1760.93,1024,1760.93Z"/><path class="cls-1" d="M467,1637.27H569.82a101.28,101.28,0,0,0,51.86-14c23.71-14.11,39.74-37.64,41.11-64.71l17.93-356.08q5.49-101.81,5.5-195.56,0-124.44-11-265.06l191.17,714c10,37.15,47.43,63.39,90.55,63.39h134.81c43.6,0,81.37-26.81,90.83-64.5l179.16-712.93q-5.52,84.06-5.5,177.78,0,122.85,9.15,279.63l18,359.26c1.43,28.59,19.2,53.23,45.12,67a101.81,101.81,0,0,0,47.85,11.73H1581c49.49,0,89.4-34.06,92.8-76.41a74.43,74.43,0,0,0,0-12.13l-81-955.33c-3.65-43-44.11-76.22-92.8-76.22H1282.38c-44.15,0-82.22,27.46-91.14,65.73l-161.77,693.94L855.73,581.76c-9.43-37.72-47.21-64.58-90.86-64.58H548c-48.69,0-89.15,33.23-92.79,76.22l-81,955.33c-.17,2-.23,3.93-.24,5.88C373.74,1599.81,415.11,1637.27,467,1637.27Z"/></svg>