<svg id="Isolation_Mode" data-name="Isolation Mode" xmlns="http://www.w3.org/2000/svg" viewBox="0 0 2048 2048"><defs><style>.cls-1{fill:#c23248;}</style></defs><path class="cls-1" d="M695.48,2001.88H649.54L648.4,1942q-.23-7-.22-21.1,0-24.75,1.81-47.79L631.43,1984.9H587.29l-19.91-111.83q2.93,33.72,2.94,57.73v10.92l-1.13,60.16h-46L534.56,1833h57.49l18.1,109.41L626.45,1833h57.71Z"/><path class="cls-1" d="M791.22,2001.88l-6.11-32.75H747.76l-5.88,32.75H693.21L739.16,1833h55.68l45.72,168.84Zm-36.89-67.68h24.21L766.32,1868Z"/><path class="cls-1" d="M950.11,1833l-4.76,37.36H909.59v131.48H863V1870.4H824.72V1833Z"/><path class="cls-1" d="M1062.14,1833l-4.75,34.69h-52.06v31.54h45.72V1933h-45.72v34H1061v34.93H958.7V1833Z"/><path class="cls-1" d="M1131.62,1941.72H1123v60.16H1076.4V1833h57.71q34.17,0,50.93,13t16.75,40.63q0,15.78-6.57,26.2T1174,1932.5l38.47,69.38h-51.6Zm-8.6-33.48h12.22q9.51,0,14.26-5.33t4.76-16.26q0-19.39-21.28-19.41h-10Z"/><path class="cls-1" d="M1264.25,1833v168.84h-46.62V1833Z"/><path class="cls-1" d="M1366.33,2001.88l-6.11-32.75h-37.35l-5.88,32.75h-48.66L1314.27,1833H1370l45.72,168.84Zm-36.89-67.68h24.21L1341.43,1868Z"/><path class="cls-1" d="M1466.37,1833v130.51h59.52l-4.75,38.33h-101.4V1833Z"/><path d="M1961.15,893.76l-173.87-44.84a771.88,771.88,0,0,0-123.1-297l91.28-154.72a10.85,10.85,0,0,0-2.06-13.06L1630.93,261.65a10.83,10.83,0,0,0-13-2.06l-154.72,91.28a771.88,771.88,0,0,0-297-123.1L1121.28,53.89a10.82,10.82,0,0,0-10.68-7.77H937.4a10.82,10.82,0,0,0-10.68,7.77L881.87,227.77a771.88,771.88,0,0,0-297,123.1L430.12,259.59a10.83,10.83,0,0,0-13.05,2.06L294.6,384.11a10.85,10.85,0,0,0-2.06,13.06l91.28,154.72a771.88,771.88,0,0,0-123.1,297L86.85,893.76a10.85,10.85,0,0,0-7.78,10.69v173.2a10.84,10.84,0,0,0,7.78,10.68l173.87,44.84a771.88,771.88,0,0,0,123.1,297l-91.28,154.73a10.83,10.83,0,0,0,2.06,13l122.47,122.47a10.83,10.83,0,0,0,13.05,2.06l154.72-91.28s13.9,10.36,39.46,25.38a771.08,771.08,0,0,0,257.57,97.72h1.8c120.17,23.32,268,23.22,427.19-41.76a774.28,774.28,0,0,0,152.3-81.34l154.72,91.28a10.83,10.83,0,0,0,13-2.06L1753.4,1598a10.83,10.83,0,0,0,2.06-13l-91.28-154.73a771.88,771.88,0,0,0,123.1-297l173.87-44.84a10.84,10.84,0,0,0,7.78-10.68V904.45A10.85,10.85,0,0,0,1961.15,893.76ZM1024,1614.64c-344.4,0-623.59-279.19-623.59-623.59S679.6,367.46,1024,367.46s623.59,279.19,623.59,623.59S1368.4,1614.64,1024,1614.64Z"/><path class="cls-1" d="M489.38,1496h98.68a97.19,97.19,0,0,0,49.78-13.44c22.76-13.54,38.14-36.12,39.45-62.11l17.22-341.78q5.26-97.71,5.27-187.71,0-119.45-10.52-254.41l183.49,685.37c9.55,35.65,45.52,60.83,86.92,60.83h129.38c41.86,0,78.11-25.73,87.2-61.9l172-684.3q-5.29,80.67-5.27,170.64,0,117.92,8.78,268.4L1369,1420.37c1.38,27.44,18.44,51.09,43.31,64.32a97.77,97.77,0,0,0,45.93,11.26h100.42c47.5,0,85.81-32.69,89.08-73.35a69.61,69.61,0,0,0,0-11.64L1570,494c-3.5-41.26-42.34-73.16-89.08-73.16H1272c-42.37,0-78.92,26.36-87.48,63.09L1029.25,1150,862.49,482.83c-9.06-36.21-45.32-62-87.22-62H567.08c-46.74,0-85.57,31.9-89.07,73.16L400.3,1411c-.16,1.9-.21,3.78-.22,5.65C399.85,1460,439.56,1496,489.38,1496Z"/></svg>