<svg id="Isolation_Mode" data-name="Isolation Mode" xmlns="http://www.w3.org/2000/svg" viewBox="0 0 2048 2048"><defs><style>.cls-1{fill:#f7f7f7;}.cls-2{fill:#c23248;}</style></defs><rect class="cls-1" x="-2" width="2048" height="2048"/><path class="cls-2" d="M780.44,1749H746.37l-.84-44.43q-.16-5.21-.16-15.64,0-18.35,1.34-35.43L733,1736.41H700.23l-14.77-82.91q2.17,25,2.18,42.8v8.1l-.84,44.6H652.74l8.39-125.18h42.62l13.43,81.11,12.08-81.11h42.79Z"/><path class="cls-2" d="M851.42,1749l-4.53-24.28H819.2L814.83,1749H778.76l34.06-125.18H854.1L888,1749Zm-27.36-50.18h18l-9.06-49.1Z"/><path class="cls-2" d="M969.22,1623.82l-3.53,27.7H939.18V1749H904.61v-97.48H876.25v-27.7Z"/><path class="cls-2" d="M1052.28,1623.82l-3.53,25.72h-38.59v23.38h33.89v25h-33.89v25.18h41.28V1749H975.59V1623.82Z"/><path class="cls-2" d="M1103.79,1704.4h-6.38V1749h-34.56V1623.82h42.79q25.33,0,37.75,9.62t12.42,30.13q0,11.68-4.87,19.42t-15.77,14.57L1163.7,1749h-38.26Zm-6.38-24.83h9.07q7,0,10.57-4t3.52-12q0-14.38-15.77-14.39h-7.39Z"/><path class="cls-2" d="M1202.12,1623.82V1749h-34.56V1623.82Z"/><path class="cls-2" d="M1277.8,1749l-4.53-24.28h-27.69l-4.36,24.28h-36.08l34.07-125.18h41.28L1314.38,1749Zm-27.35-50.18h18l-9.06-49.1Z"/><path class="cls-2" d="M1352,1623.82v96.76h44.13l-3.52,28.42H1317.4V1623.82Z"/><path d="M1718.8,927.44,1589.89,894.2A572.23,572.23,0,0,0,1498.63,674l67.67-114.71a8.05,8.05,0,0,0-1.52-9.68l-90.8-90.8a8.05,8.05,0,0,0-9.68-1.52l-114.71,67.67a572.23,572.23,0,0,0-220.22-91.26l-33.24-128.91a8,8,0,0,0-7.93-5.77H959.8a8,8,0,0,0-7.93,5.77L918.63,433.68a572.23,572.23,0,0,0-220.22,91.26L583.7,457.27a8.05,8.05,0,0,0-9.68,1.52l-90.8,90.8a8.05,8.05,0,0,0-1.52,9.68L549.37,674A572.23,572.23,0,0,0,458.11,894.2L329.2,927.44a8,8,0,0,0-5.77,7.93v128.4a8,8,0,0,0,5.77,7.93l128.91,33.24a572.23,572.23,0,0,0,91.26,220.22L481.7,1439.87a8.05,8.05,0,0,0,1.52,9.68l90.8,90.8a8.05,8.05,0,0,0,9.68,1.52l114.71-67.67s10.31,7.68,29.25,18.82a571.68,571.68,0,0,0,191,72.44H920c89.09,17.29,198.7,17.22,316.72-31a574,574,0,0,0,112.91-60.3l114.71,67.67a8.05,8.05,0,0,0,9.68-1.52l90.8-90.8a8.05,8.05,0,0,0,1.52-9.68l-67.67-114.71a572.23,572.23,0,0,0,91.26-220.22l128.91-33.24a8,8,0,0,0,5.77-7.93V935.37A8,8,0,0,0,1718.8,927.44ZM1024,1461.9c-255.34,0-462.33-207-462.33-462.33s207-462.33,462.33-462.33,462.33,207,462.33,462.33S1279.34,1461.9,1024,1461.9Z"/><path class="cls-2" d="M627.63,1373.9h73.16a72.08,72.08,0,0,0,36.91-10c16.87-10,28.28-26.78,29.25-46l12.77-253.39q3.9-72.45,3.91-139.17,0-88.56-7.81-188.62l136,508.13c7.08,26.43,33.75,45.1,64.44,45.1h95.93c31,0,57.91-19.08,64.64-45.89l127.49-507.34q-3.93,59.81-3.91,126.51,0,87.42,6.51,199l12.79,255.66c1,20.34,13.67,37.88,32.11,47.68a72.46,72.46,0,0,0,34.05,8.35h74.45c35.22,0,63.62-24.24,66-54.38a52.91,52.91,0,0,0,0-8.63l-57.63-679.83c-2.59-30.59-31.39-54.24-66-54.24H1207.87c-31.42,0-58.51,19.54-64.86,46.78L1027.9,1117.42,904.25,622.78c-6.71-26.85-33.59-46-64.66-46H685.24c-34.65,0-63.44,23.65-66,54.24l-57.61,679.83c-.12,1.41-.16,2.8-.17,4.19C561.26,1347.24,590.7,1373.9,627.63,1373.9Z"/></svg>